<svg width="122" height="32" viewBox="0 0 122 32" fill="none" xmlns="http://www.w3.org/2000/svg">
<path d="M14.7433 6.65569C10.542 7.21549 7.21543 10.5421 6.65566 14.7434H9.84092C10.3408 12.2807 12.2806 10.3409 14.7433 9.84095V6.65569Z" fill="#ff5c00"/>
<path d="M14.7433 22.1599C12.1767 21.6388 10.1781 19.554 9.78543 16.9432H6.61914C7.05091 21.292 10.4378 24.7714 14.7433 25.3451V22.1599Z" fill="#ff5c00"/>
<path d="M16.9431 25.3817V22.2154C19.6596 21.8068 21.8067 19.6597 22.2154 16.9432H25.3816C24.9394 21.3973 21.3972 24.9395 16.9431 25.3817Z" fill="white"/>
<path d="M16.9431 9.78542V6.61914C21.2919 7.05088 24.7715 10.4378 25.3451 14.7434H22.1599C21.6389 12.1768 19.5539 10.1781 16.9431 9.78542Z" fill="white"/>
<path d="M14.7427 0.0215518C6.8934 0.630537 0.63002 6.89393 0.0210573 14.7432H4.43929C5.02166 9.32559 9.32506 5.02218 14.7427 4.43978V0.0215518Z" fill="white"/>
<path d="M14.7427 27.5607C9.22072 26.9671 4.8563 22.5077 4.4098 16.943H-0.000244141C0.463567 24.9388 6.78893 31.3618 14.7427 31.9789V27.5607Z" fill="white"/>
<path d="M16.9425 32.0002V27.5902C22.6124 27.1353 27.1348 22.6129 27.5897 16.943H31.9997C31.5298 25.0439 25.0433 31.5304 16.9425 32.0002Z" fill="#ff5c00"/>
<path d="M16.9425 4.41028V0.000244141C24.9383 0.464035 31.3614 6.78943 31.9784 14.7432H27.5602C26.9666 9.22122 22.5072 4.85677 16.9425 4.41028Z" fill="#ff5c00"/>
<circle cx="15.9997" cy="15.9997" r="3.45675" fill="white"/>
<path fill-rule="evenodd" clip-rule="evenodd" d="M55.6362 8.50024H42V11.682H47.4544L47.4544 23.4999H51.0908L51.0908 11.682H55.6362V8.50024Z" fill="white"/>
<path fill-rule="evenodd" clip-rule="evenodd" d="M113.817 8.50024H100.181V11.682H105.636L105.636 23.4997H109.272V11.682H113.817V8.50024Z" fill="#ff5c00"/>
<path fill-rule="evenodd" clip-rule="evenodd" d="M55.6365 12.1365L55.6365 23.5H59.2728L59.2728 16.3219C60.3107 14.8638 61.5734 14.8638 64.7273 14.8638V12.1366H61.5455C60.7209 12.1366 59.8964 12.469 59.2728 12.9328V12.1365L55.6365 12.1365Z" fill="white"/>
<path fill-rule="evenodd" clip-rule="evenodd" d="M112.908 12.1365L112.908 23.5H116.545L116.545 16.3219C117.583 14.8638 118.845 14.8638 121.999 14.8638V12.1366H118.817C117.993 12.1366 117.168 12.469 116.545 12.9328V12.1365L112.908 12.1365Z" fill="#ff5c00"/>
<path fill-rule="evenodd" clip-rule="evenodd" d="M65.9771 12.1365V14.8637H72.3407C73.0404 14.9832 73.4 15.0991 73.7043 15.7728V16.6819H68.2498C64.1589 16.6819 64.1589 23.5 68.2498 23.5H76.8861V15.7728C76.908 13.0791 76.0998 12.4028 73.7043 12.1365H65.9771ZM73.5907 18.9547V20.7729H69.0453C68.1362 20.7729 68.1362 18.9547 69.0453 18.9547H73.5907Z" fill="white"/>
<path d="M88.818 15.091V12.1365H82.4544C76.7723 12.1365 76.7724 23.5 82.4544 23.5H88.818V20.5455H83.3635C81.545 20.5455 81.545 15.091 83.3635 15.091H88.818Z" fill="white"/>
<path fill-rule="evenodd" clip-rule="evenodd" d="M90.1816 8.5V23.4999H93.818L93.818 8.5L90.1816 8.5ZM102.456 12.1364H98.3653L94.729 16.2273C93.9094 17.2381 93.9458 17.8489 94.729 18.9545L98.8199 23.4999H103.365L98.1381 18.0454C97.7007 17.5343 97.642 17.24 98.1381 16.6818L102.911 12.1364H102.456Z" fill="white"/>
</svg>
